<?xml version="1.0" standalone="no"?>
<!DOCTYPE svg PUBLIC "-//W3C//DTD SVG 1.1//EN" "http://www.w3.org/Graphics/SVG/1.1/DTD/svg11.dtd" >
<svg xmlns="http://www.w3.org/2000/svg" xmlns:xlink="http://www.w3.org/1999/xlink" version="1.1">
<metadata>
Created by FontForge 20191125 at Fri Dec 16 20:19:44 2011
 By convertio
Copyright (c) 2011 Matthew Desmond (http://www.madtype.com | mattdesmond@gmail.com), with Reserved Font Name "Quantico"
</metadata>
<defs>
<font id="Quantico-Italic" horiz-adv-x="585" >
  <font-face 
    font-family="Quantico"
    font-weight="400"
    font-style="italic"
    font-stretch="normal"
    units-per-em="1000"
    panose-1="2 0 0 0 0 0 0 0 0 0"
    ascent="800"
    descent="-200"
    x-height="500"
    cap-height="700"
    bbox="-61 -335 1375 934"
    underline-thickness="50"
    underline-position="-100"
    slope="-12"
    unicode-range="U+0020-FB08"
  />
<missing-glyph horiz-adv-x="260" 
 />
    <glyph glyph-name=".notdef" horiz-adv-x="260" 
 />
    <glyph glyph-name=".null" horiz-adv-x="0" 
 />
    <glyph glyph-name="nonmarkingreturn" horiz-adv-x="333" 
 />
    <glyph glyph-name="space" unicode=" " horiz-adv-x="260" 
 />
    <glyph glyph-name="exclam" unicode="!" horiz-adv-x="350" 
d="M100 0l15 150h150l-15 -150h-150zM163 268l22 462h132l-74 -462h-80z" />
    <glyph glyph-name="quotedbl" unicode="&#x22;" horiz-adv-x="430" 
d="M136 438l10 292h110l-50 -292h-70zM316 438l10 292h110l-50 -292h-70z" />
    <glyph glyph-name="numbersign" unicode="#" horiz-adv-x="756" 
d="M423 -20l38 192h-176l-38 -192h-83l38 192h-124l8 76h131l41 212h-150l8 76h157l36 184h83l-36 -184h176l36 184h83l-36 -184h137l-8 -76h-144l-41 -212h163l-8 -76h-170l-38 -192h-83zM341 460l-41 -212h176l41 212h-176z" />
    <glyph glyph-name="dollar" unicode="$" horiz-adv-x="645" 
d="M263 -123l12 118h-80l-109 67l11 103h100l-9 -80h275l23 218h-249l-109 67l29 268l123 67h70l12 118h100l-12 -118h63l109 -67l-11 -103h-100l8 80h-265l-22 -212h249l109 -67l-29 -274l-123 -67h-63l-12 -118h-100z" />
    <glyph glyph-name="percent" unicode="%" horiz-adv-x="991" 
d="M469 424l-123 -67h-113l-109 67l23 219l123 67h113l109 -67zM237 629l-20 -191h163l20 191h-163zM781 710h90l-589 -720h-90zM595 276l123 67h113l109 -67l-24 -219l-123 -67h-113l-109 67zM827 71l20 191h-163l-20 -191h163z" />
    <glyph glyph-name="ampersand" unicode="&#x26;" horiz-adv-x="655" 
d="M667 407l-9 -90h-74l-27 -255l-123 -67h-229l-109 67l26 249l92 50l1 2l-82 50l24 225l123 67h189l109 -67l-12 -113h-100l9 90h-221l-22 -208h175l-9 -90h-175l-25 -232h261l27 255l123 67h58z" />
    <glyph glyph-name="quotesingle" unicode="'" horiz-adv-x="250" 
d="M136 438l10 292h110l-50 -292h-70z" />
    <glyph glyph-name="parenleft" unicode="(" horiz-adv-x="363" 
d="M239 660l-83 -790h133l-8 -70h-97l-108 67l83 796l123 67h97l-7 -70h-133z" />
    <glyph glyph-name="parenright" unicode=")" horiz-adv-x="363" 
d="M179 -130l83 790h-133l7 70h97l109 -67l-83 -796l-124 -67h-97l8 70h133z" />
    <glyph glyph-name="asterisk" unicode="*" horiz-adv-x="630" 
d="M336 524l9 186h88l-29 -186l180 67l19 -83l-184 -48l101 -143l-77 -53l-85 154l-117 -154l-65 53l131 143l-174 48l37 83z" />
    <glyph glyph-name="plus" unicode="+" horiz-adv-x="600" 
d="M81 297h203l21 203h94l-21 -203h203l-10 -94h-203l-21 -203h-94l21 203h-203z" />
    <glyph glyph-name="comma" unicode="," horiz-adv-x="350" 
d="M78 -200l37 350h150l-4 -42l-141 -308h-42z" />
    <glyph glyph-name="hyphen" unicode="-" horiz-adv-x="438" 
d="M92 218l10 87h298l-10 -87h-298z" />
    <glyph glyph-name="period" unicode="." horiz-adv-x="350" 
d="M100 0l15 150h150l-15 -150h-150z" />
    <glyph glyph-name="slash" unicode="/" horiz-adv-x="386" 
d="M27 -20l314 740h90l-314 -740h-90z" />
    <glyph glyph-name="zero" unicode="0" horiz-adv-x="665" 
d="M581 62l-123 -67h-253l-109 67l61 576l123 67h253l109 -67zM254 615l-56 -530h285l56 530h-285z" />
    <glyph glyph-name="one" unicode="1" horiz-adv-x="570" 
d="M141 490l11 101l201 109h80l-64 -610h170l-9 -90h-440l9 90h170l52 498z" />
    <glyph glyph-name="two" unicode="2" horiz-adv-x="630" 
d="M199 90h350l-9 -90h-450l33 314l123 67h234l24 229h-250l-10 -90h-100l12 113l123 67h218l109 -67l-29 -275l-123 -67h-234z" />
    <glyph glyph-name="three" unicode="3" horiz-adv-x="651" 
d="M444 -5h-239l-109 67l12 113h100l-10 -90h271l25 232h-205l9 90h205l22 208h-271l-9 -90h-100l12 113l123 67h239l109 -67l-24 -225l-92 -50l-1 -2l82 -50l-26 -249z" />
    <glyph glyph-name="four" unicode="4" horiz-adv-x="624" 
d="M501 162l-17 -162h-98l17 162h-346l9 86l399 452h92l-47 -451h90l-9 -87h-90zM170 249h242l32 308h-2l-272 -306v-2z" />
    <glyph glyph-name="five" unicode="5" horiz-adv-x="645" 
d="M274 610l-19 -179h229l109 -67l-32 -302l-123 -67h-233l-109 67l12 113h100l-10 -90h265l27 256h-345l38 359h435l-9 -90h-335z" />
    <glyph glyph-name="six" unicode="6" horiz-adv-x="635" 
d="M254 615l-26 -246l76 41h168l109 -67l-30 -281l-123 -67h-223l-109 67l61 576l123 67h223l109 -67l-12 -113h-100l9 90h-255zM223 320l-25 -235h255l25 235h-255z" />
    <glyph glyph-name="seven" unicode="7" horiz-adv-x="615" 
d="M273 0h-106l342 608l1 2h-286l-10 -90h-100l19 180h505l-6 -60z" />
    <glyph glyph-name="eight" unicode="8" horiz-adv-x="645" 
d="M198 85h265l25 232h-265zM232 407h265l22 208h-265zM438 -5h-249l-93 67l26 249l92 50l1 2l-82 50l24 225l123 67h233l109 -67l-24 -225l-92 -50l-1 -2l82 -50l-26 -249z" />
    <glyph glyph-name="nine" unicode="9" horiz-adv-x="635" 
d="M453 85l26 246l-75 -41h-168l-109 67l30 281l123 67h223l109 -67l-61 -576l-123 -67h-223l-109 67l12 113h100l-10 -90h255zM484 380l25 235h-255l-25 -235h255z" />
    <glyph glyph-name="colon" unicode=":" horiz-adv-x="350" 
d="M100 0l15 150h150l-15 -150h-150zM136 350l16 150h150l-16 -150h-150z" />
    <glyph glyph-name="semicolon" unicode=";" horiz-adv-x="350" 
d="M136 350l16 150h150l-16 -150h-150zM78 -200l37 350h150l-4 -42l-141 -308h-42z" />
    <glyph glyph-name="less" unicode="&#x3c;" horiz-adv-x="650" 
d="M612 501l-10 -94l-419 -156v-2l386 -156l-10 -94l-479 200l11 102z" />
    <glyph glyph-name="equal" unicode="=" horiz-adv-x="680" 
d="M609 183l-10 -94h-500l10 94h500zM633 411l-10 -94h-500l10 94h500z" />
    <glyph glyph-name="greater" unicode="&#x3e;" horiz-adv-x="650" 
d="M132 407l10 94l479 -200l-11 -102l-521 -200l10 94l420 156v2z" />
    <glyph glyph-name="question" unicode="?" horiz-adv-x="580" 
d="M338 391l-22 -123h-80l5 146l123 67h76l17 159h-200l-10 -90h-100l12 113l123 67h168l109 -67l-21 -205l-123 -67h-77zM173 0l15 150h150l-15 -150h-150z" />
    <glyph glyph-name="at" unicode="@" horiz-adv-x="1010" 
d="M789 -141h-598l-109 67l75 712l123 67h598l109 -67l-57 -534l-123 -67h-169l-61 41l-81 -41h-101l-102 67l78 366l130 67h101l62 -41l80 41h26l-88 -420h160l53 508h-650l-72 -686h624zM464 450l-69 -326h191l69 326h-191z" />
    <glyph glyph-name="A" unicode="A" horiz-adv-x="664" 
d="M467 700l177 -700h-98l-42 166h-310l-76 -166h-98l323 700h124zM394 601l-159 -345h246l-85 345h-2z" />
    <glyph glyph-name="B" unicode="B" horiz-adv-x="655" 
d="M608 413l-92 -50l-1 -2l82 -50l-25 -244l-123 -67h-359l73 700h359l109 -67zM223 317l-24 -227h275l24 227h-275zM254 610l-22 -203h275l22 203h-275z" />
    <glyph glyph-name="C" unicode="C" horiz-adv-x="665" 
d="M503 175h100l-12 -113l-123 -67h-263l-109 67l61 576l123 67h263l109 -67l-12 -113h-100l9 90h-295l-56 -530h295z" />
    <glyph glyph-name="D" unicode="D" horiz-adv-x="705" 
d="M622 67l-123 -67h-409l73 700h409l109 -67zM254 610l-55 -520h325l55 520h-325z" />
    <glyph glyph-name="E" unicode="E" horiz-adv-x="539" 
d="M223 315l-24 -225h299l-9 -90h-399l73 700h399l-9 -90h-299l-22 -205h239l-9 -90h-239z" />
    <glyph glyph-name="F" unicode="F" horiz-adv-x="529" 
d="M223 315l-33 -315h-100l73 700h409l-9 -90h-309l-22 -205h249l-9 -90h-249z" />
    <glyph glyph-name="G" unicode="G" horiz-adv-x="675" 
d="M397 260l9 90h215l-30 -288l-123 -67h-263l-109 67l61 576l123 67h263l109 -67l-12 -113h-100l9 90h-295l-56 -530h295l19 175h-115z" />
    <glyph glyph-name="H" unicode="H" horiz-adv-x="715" 
d="M223 315l-33 -315h-100l73 700h100l-31 -295h335l31 295h100l-73 -700h-100l33 315h-335z" />
    <glyph glyph-name="I" unicode="I" horiz-adv-x="280" 
d="M90 0l73 700h100l-73 -700h-100z" />
    <glyph glyph-name="J" unicode="J" horiz-adv-x="535" 
d="M353 85l65 615h100l-67 -638l-123 -67h-193l-109 67l17 163h100l-15 -140h225z" />
    <glyph glyph-name="K" unicode="K" horiz-adv-x="663" 
d="M90 0l73 700h100l-39 -370h2l348 370h120l-309 -327l268 -373h-122l-215 301l-107 -113l-19 -188h-100z" />
    <glyph glyph-name="L" unicode="L" horiz-adv-x="479" 
d="M90 0l73 700h100l-64 -610h259l-9 -90h-359z" />
    <glyph glyph-name="M" unicode="M" horiz-adv-x="885" 
d="M700 0l59 570h-2l-265 -570h-100l-146 570h-2l-59 -570h-95l73 700h141l149 -584h2l272 584h141l-73 -700h-95z" />
    <glyph glyph-name="N" unicode="N" horiz-adv-x="735" 
d="M245 529l-55 -529h-100l73 700h91l306 -529h2l56 529h100l-73 -700h-91l-307 529h-2z" />
    <glyph glyph-name="O" unicode="O" horiz-adv-x="705" 
d="M621 62l-123 -67h-293l-109 67l61 576l123 67h293l109 -67zM254 615l-56 -530h325l56 530h-325z" />
    <glyph glyph-name="P" unicode="P" horiz-adv-x="625" 
d="M90 0l73 700h349l109 -67l-31 -297l-123 -67h-249l-28 -269h-100zM254 610l-27 -251h265l27 251h-265z" />
    <glyph glyph-name="Q" unicode="Q" horiz-adv-x="705" 
d="M254 615l-56 -530h325l56 530h-325zM390 -5h-185l-109 67l61 576l123 67h293l109 -67l-61 -576l-123 -67l92 -195h-111z" />
    <glyph glyph-name="R" unicode="R" horiz-adv-x="655" 
d="M370 279h-151l-29 -279h-100l73 700h359l109 -67l-30 -287l-123 -67l132 -279h-111zM254 610l-26 -241h275l26 241h-275z" />
    <glyph glyph-name="S" unicode="S" horiz-adv-x="645" 
d="M128 370l29 268l123 67h233l109 -67l-11 -103h-100l8 80h-265l-22 -212h249l109 -67l-29 -274l-123 -67h-243l-109 67l11 103h100l-9 -80h275l23 218h-249z" />
    <glyph glyph-name="T" unicode="T" horiz-adv-x="558" 
d="M393 610l-64 -610h-100l64 610h-199l9 90h498l-9 -90h-199z" />
    <glyph glyph-name="U" unicode="U" horiz-adv-x="705" 
d="M588 700h100l-67 -638l-123 -67h-293l-109 67l67 638h100l-64 -605h325z" />
    <glyph glyph-name="V" unicode="V" horiz-adv-x="664" 
d="M717 700l-323 -700h-124l-177 700h101l147 -597h2l273 597h101z" />
    <glyph glyph-name="W" unicode="W" horiz-adv-x="956" 
d="M999 700l-253 -700h-119l-90 561h-2l-206 -561h-119l-107 700h97l82 -572h2l211 572h112l90 -572h2l203 572h97z" />
    <glyph glyph-name="X" unicode="X" horiz-adv-x="651" 
d="M30 0l277 357l-194 343h112l146 -260l201 260h112l-267 -343l204 -357h-112l-156 275l-211 -275h-112z" />
    <glyph glyph-name="Y" unicode="Y" horiz-adv-x="611" 
d="M255 0l32 309l-194 391h112l141 -298h2l204 298h112l-277 -392l-32 -308h-100z" />
    <glyph glyph-name="Z" unicode="Z" 
d="M134 610l9 90h455l-6 -60l-403 -548v-2h345l-9 -90h-475l6 60l402 548l1 2h-325z" />
    <glyph glyph-name="bracketleft" unicode="[" horiz-adv-x="363" 
d="M239 660l-83 -790h133l-8 -70h-213l98 930h213l-7 -70h-133z" />
    <glyph glyph-name="backslash" unicode="\" horiz-adv-x="386" 
d="M195 720l158 -740h-90l-158 740h90z" />
    <glyph glyph-name="bracketright" unicode="]" horiz-adv-x="363" 
d="M179 -130l83 790h-133l7 70h213l-98 -930h-213l8 70h133z" />
    <glyph glyph-name="asciicircum" unicode="^" horiz-adv-x="602" 
d="M196 380h-107l234 320h102l166 -320h-107l-118 233h-1z" />
    <glyph glyph-name="underscore" unicode="_" horiz-adv-x="612" 
d="M619 -116l-9 -84h-651l9 84h651z" />
    <glyph glyph-name="grave" unicode="`" horiz-adv-x="500" 
d="M390 718l81 -128h-80l-131 128h130z" />
    <glyph glyph-name="a" unicode="a" horiz-adv-x="575" 
d="M220 418l-35 -336h221l35 336h-221zM548 505l-54 -510h-26l-67 41l-75 -41h-131l-109 67l40 376l123 67h131l66 -41l76 41h26z" />
    <glyph glyph-name="b" unicode="b" horiz-adv-x="595" 
d="M301 505h151l109 -67l-40 -376l-123 -67h-151l-67 41l-75 -41h-26l77 735h97l-28 -266zM220 418l-35 -336h241l35 336h-241z" />
    <glyph glyph-name="c" unicode="c" horiz-adv-x="515" 
d="M220 413l-34 -326h278l-9 -87h-259l-109 67l38 366l123 67h259l-9 -87h-278z" />
    <glyph glyph-name="d" unicode="d" horiz-adv-x="595" 
d="M249 505h151l66 -41l28 266h97l-77 -735h-73l-20 41l-75 -41h-151l-109 67l40 376zM426 82l35 336h-241l-35 -336h241z" />
    <glyph glyph-name="e" unicode="e" horiz-adv-x="555" 
d="M484 87l-9 -87h-279l-109 67l39 371l123 67h163l109 -67l-24 -222h-298l-13 -129h298zM220 418l-12 -115h201l12 115h-201z" />
    <glyph glyph-name="f" unicode="f" horiz-adv-x="389" 
d="M83 413l9 87h92l17 163l123 67h101l-9 -87h-120l-15 -143h120l-9 -87h-120l-43 -413h-97l43 413h-92z" />
    <glyph glyph-name="g" unicode="g" 
d="M532 505h26l-67 -638l-124 -67h-259l10 87h278l17 165l-75 -41h-141l-109 67l38 360l123 67h141l66 -41zM187 98h231l33 320h-231z" />
    <glyph glyph-name="h" unicode="h" horiz-adv-x="595" 
d="M177 0h-97l76 730h97l-28 -266l76 41h151l109 -67l-46 -438h-97l43 418h-241z" />
    <glyph glyph-name="i" unicode="i" horiz-adv-x="257" 
d="M229 500l-52 -500h-97l52 500h97zM140 623l11 107h107l-11 -107h-107z" />
    <glyph glyph-name="j" unicode="j" horiz-adv-x="257" 
d="M140 623l11 107h107l-11 -107h-107zM229 500l-66 -633l-124 -67h-100l10 87h119l64 613h97z" />
    <glyph glyph-name="k" unicode="k" horiz-adv-x="531" 
d="M253 730l-50 -479h2l232 249h116l-217 -226l195 -274h-119l-141 205l-82 -86l-12 -119h-97l76 730h97z" />
    <glyph glyph-name="l" unicode="l" horiz-adv-x="317" 
d="M196 0l-109 67l69 663h97l-67 -643h120l-9 -87h-101z" />
    <glyph glyph-name="m" unicode="m" horiz-adv-x="833" 
d="M799 438l-46 -438h-97l43 418h-191l-43 -418h-97l43 418h-191l-43 -418h-97l53 505h73l19 -41l76 41h101l87 -54l100 54h101z" />
    <glyph glyph-name="n" unicode="n" 
d="M551 438l-46 -438h-97l43 418h-231l-43 -418h-97l53 505h73l19 -41l76 41h141z" />
    <glyph glyph-name="o" unicode="o" 
d="M511 62l-123 -67h-193l-109 67l40 376l123 67h193l109 -67zM220 418l-35 -336h231l35 336h-231z" />
    <glyph glyph-name="p" unicode="p" horiz-adv-x="595" 
d="M398 -5h-151l-67 41l-25 -236h-97l75 705h73l19 -41l76 41h151l109 -67l-40 -376zM220 418l-35 -336h241l35 336h-241z" />
    <glyph glyph-name="q" unicode="q" horiz-adv-x="595" 
d="M346 -5h-151l-109 67l40 376l123 67h151l66 -41l76 41h26l-75 -705h-97l25 236zM426 82l35 336h-241l-35 -336h241z" />
    <glyph glyph-name="r" unicode="r" horiz-adv-x="389" 
d="M402 413h-182l-43 -413h-97l52 500h73l20 -41l75 41h111z" />
    <glyph glyph-name="s" unicode="s" horiz-adv-x="536" 
d="M480 230l-17 -163l-123 -67h-260l9 87h279l13 123h-163l-109 67l16 156l123 67h250l-9 -87h-269l-12 -116h163z" />
    <glyph glyph-name="t" unicode="t" horiz-adv-x="409" 
d="M83 413l9 87h92l9 84l103 56l-15 -140h120l-9 -87h-120l-34 -326h120l-9 -87h-101l-109 67l36 346h-92z" />
    <glyph glyph-name="u" unicode="u" 
d="M86 62l46 438h97l-44 -418h231l44 418h97l-53 -505h-73l-20 41l-75 -41h-141z" />
    <glyph glyph-name="v" unicode="v" horiz-adv-x="527" 
d="M167 500l104 -408h2l191 408h95l-237 -500h-117l-133 500h95z" />
    <glyph glyph-name="w" unicode="w" horiz-adv-x="757" 
d="M487 0l-68 382h-2l-147 -382h-115l-73 500h90l54 -391h2l151 391h103l69 -391h2l136 391h90l-177 -500h-115z" />
    <glyph glyph-name="x" unicode="x" horiz-adv-x="500" 
d="M20 0l205 255l-147 245h108l98 -172l134 172h108l-200 -245l154 -255h-105l-106 183l-144 -183h-105z" />
    <glyph glyph-name="y" unicode="y" horiz-adv-x="519" 
d="M104 -200l111 223l-143 477h97l105 -356h2l178 356h97l-352 -700h-95z" />
    <glyph glyph-name="z" unicode="z" horiz-adv-x="466" 
d="M46 66l289 345v2h-242l9 87h366l-7 -66l-288 -345v-2h252l-9 -87h-376z" />
    <glyph glyph-name="braceleft" unicode="{" horiz-adv-x="398" 
d="M228 225l-37 -355h133l-8 -70h-97l-108 67l38 363h-85l7 70h85l38 363l123 67h97l-7 -70h-133l-37 -355l-72 -39v-2z" />
    <glyph glyph-name="bar" unicode="|" horiz-adv-x="330" 
d="M98 -200l98 930h90l-98 -930h-90z" />
    <glyph glyph-name="braceright" unicode="}" horiz-adv-x="398" 
d="M179 -130l37 355l71 39v2l-62 39l37 355h-133l7 70h97l109 -67l-38 -363h85l-7 -70h-85l-38 -363l-124 -67h-97l8 70h133z" />
    <glyph glyph-name="asciitilde" unicode="~" horiz-adv-x="682" 
d="M280 270h-95l-9 -82h-87l11 102l123 67h103l132 -82h95l9 82h87l-11 -102l-123 -67h-103z" />
    <glyph glyph-name="uni00A0" unicode="&#xa0;" horiz-adv-x="260" 
 />
    <glyph glyph-name="exclamdown" unicode="&#xa1;" horiz-adv-x="350" 
d="M136 350l16 150h150l-16 -150h-150zM84 -230l75 462h80l-23 -462h-132z" />
    <glyph glyph-name="cent" unicode="&#xa2;" horiz-adv-x="515" 
d="M415 500h92l-9 -87h-278l-34 -326h278l-9 -87h-92l-13 -118h-96l13 118h-71l-109 67l38 366l123 67h71l12 118h96z" />
    <glyph glyph-name="sterling" unicode="&#xa3;" horiz-adv-x="642" 
d="M394 365l-8 -74h-139l-21 -201h275l9 90h100l-11 -113l-123 -67h-359l30 291h-77l8 74h77l29 273l123 67h193l109 -67l-12 -113h-100l9 90h-225l-26 -250h139z" />
    <glyph glyph-name="yen" unicode="&#xa5;" horiz-adv-x="651" 
d="M108 303l8 74h157l-160 323h112l141 -298h2l204 298h112l-229 -323h157l-8 -74h-198l-8 -81h198l-8 -74h-198l-15 -148h-100l15 148h-198l8 74h198l8 81h-198z" />
    <glyph glyph-name="brokenbar" unicode="&#xa6;" horiz-adv-x="330" 
d="M98 -200l43 402h90l-43 -402h-90zM154 328l42 402h90l-42 -402h-90z" />
    <glyph glyph-name="section" unicode="&#xa7;" horiz-adv-x="653" 
d="M462 163l18 179h-227l-18 -179h227zM153 336l92 50v2l-81 50l21 200l123 67h213l109 -67l-11 -103h-100l8 80h-245l-19 -183h211l109 -67l-21 -196l-92 -50v-2l82 -50l-21 -200l-124 -67h-223l-108 67l10 103h100l-8 -80h255l19 183h-211l-109 67z" />
    <glyph glyph-name="dieresis" unicode="&#xa8;" horiz-adv-x="544" 
d="M172 595l11 105h105l-11 -105h-105zM391 595l11 105h105l-11 -105h-105z" />
    <glyph glyph-name="copyright" unicode="&#xa9;" horiz-adv-x="840" 
d="M756 62l-123 -67h-428l-109 67l61 576l123 67h428l109 -67zM236 635l-60 -570h500l60 570h-500zM543 251h69l-8 -74l-77 -42h-186l-70 42l36 346l79 42h186l68 -42l-7 -74h-69l5 53h-195l-32 -304h195z" />
    <glyph glyph-name="ordfeminine" unicode="&#xaa;" horiz-adv-x="595" 
d="M90 0l9 87h415l-9 -87h-415zM251 613l-35 -336h221l35 336h-221zM578 700l-54 -510h-26l-66 41l-76 -41h-131l-108 67l39 376l123 67h131l67 -41l75 41h26z" />
    <glyph glyph-name="guillemotleft" unicode="&#xab;" horiz-adv-x="680" 
d="M351 107l-11 -107l-229 200l10 102l271 200l-11 -107l-198 -143v-1zM601 107l-11 -107l-229 200l10 102l271 200l-11 -107l-198 -143v-1z" />
    <glyph glyph-name="registered" unicode="&#xae;" horiz-adv-x="840" 
d="M756 62l-123 -67h-428l-109 67l61 576l123 67h428l109 -67zM236 635l-60 -570h500l60 570h-500zM468 303h-106l-17 -165h-69l45 424h241l69 -42l-18 -174l-72 -40l81 -168h-77zM383 499l-14 -133h177l14 133h-177z" />
    <glyph glyph-name="macron" unicode="&#xaf;" horiz-adv-x="599" 
d="M207 600l7 67h311l-7 -67h-311z" />
    <glyph glyph-name="degree" unicode="&#xb0;" horiz-adv-x="505" 
d="M469 424l-123 -67h-113l-109 67l23 219l123 67h113l109 -67zM237 629l-20 -191h163l20 191h-163z" />
    <glyph glyph-name="plusminus" unicode="&#xb1;" horiz-adv-x="680" 
d="M128 367h203l14 133h94l-14 -133h203l-10 -94h-203l-14 -133h-94l14 133h-203zM599 94l-9 -94h-500l9 94h500z" />
    <glyph glyph-name="acute" unicode="&#xb4;" horiz-adv-x="500" 
d="M247 590l107 128h130l-157 -128h-80z" />
    <glyph glyph-name="mu" unicode="&#xb5;" horiz-adv-x="612" 
d="M448 0l-20 41l-75 -41h-160l-16 -158h-97l69 658h97l-44 -413h231l44 413h97l-44 -413h87l-9 -87h-160z" />
    <glyph glyph-name="paragraph" unicode="&#xb6;" horiz-adv-x="685" 
d="M476 -200l86 813h-97l-86 -813h-97l48 449h-128l-109 67l33 317l123 67h419l-95 -900h-97z" />
    <glyph glyph-name="periodcentered" unicode="&#xb7;" horiz-adv-x="350" 
d="M129 284l16 150h150l-16 -150h-150z" />
    <glyph glyph-name="cedilla" unicode="&#xb8;" horiz-adv-x="578" 
d="M269 0h54l-26 -37l62 -38l-8 -74l-91 -50h-70l5 50h99l7 65h-89z" />
    <glyph glyph-name="ordmasculine" unicode="&#xba;" horiz-adv-x="605" 
d="M542 262l-123 -67h-193l-109 67l40 376l123 67h193l109 -67zM251 618l-35 -336h231l35 336h-231zM90 0l9 87h425l-9 -87h-425z" />
    <glyph glyph-name="guillemotright" unicode="&#xbb;" horiz-adv-x="680" 
d="M340 0l11 107l198 144v1l-168 143l11 107l229 -200l-10 -102zM90 0l11 107l198 144v1l-168 143l11 107l229 -200l-10 -102z" />
    <glyph glyph-name="questiondown" unicode="&#xbf;" horiz-adv-x="580" 
d="M294 109l22 123h80l-5 -146l-124 -67h-76l-16 -159h200l9 90h100l-12 -113l-123 -67h-168l-109 67l22 205l123 67h77zM459 500l-16 -150h-150l16 150h150z" />
    <glyph glyph-name="Agrave" unicode="&#xc0;" horiz-adv-x="664" 
d="M467 700l177 -700h-98l-42 166h-310l-76 -166h-98l323 700h124zM394 601l-159 -345h246l-85 345h-2zM393 908l81 -128h-80l-131 128h130z" />
    <glyph glyph-name="Aacute" unicode="&#xc1;" horiz-adv-x="664" 
d="M467 700l177 -700h-98l-42 166h-310l-76 -166h-98l323 700h124zM394 601l-159 -345h246l-85 345h-2zM307 780l107 128h130l-157 -128h-80z" />
    <glyph glyph-name="Acircumflex" unicode="&#xc2;" horiz-adv-x="664" 
d="M467 700l177 -700h-98l-42 166h-310l-76 -166h-98l323 700h124zM394 601l-159 -345h246l-85 345h-2zM353 918h110l87 -138h-75l-73 80l-88 -80h-75z" />
    <glyph glyph-name="Atilde" unicode="&#xc3;" horiz-adv-x="664" 
d="M467 700l177 -700h-98l-42 166h-310l-76 -166h-98l323 700h124zM394 601l-159 -345h246l-85 345h-2zM319 857h-2l-9 -82h-68l10 94l100 55l133 -82h2l9 82h68l-10 -94l-100 -55z" />
    <glyph glyph-name="Adieresis" unicode="&#xc4;" horiz-adv-x="664" 
d="M467 700l177 -700h-98l-42 166h-310l-76 -166h-98l323 700h124zM394 601l-159 -345h246l-85 345h-2zM232 785l11 105h105l-11 -105h-105zM451 785l11 105h105l-11 -105h-105z" />
    <glyph glyph-name="Aring" unicode="&#xc5;" horiz-adv-x="664" 
d="M546 682l-66 -36l164 -646h-98l-42 166h-310l-76 -166h-98l299 647l-58 35l18 169l87 47h121l77 -47zM394 601l-159 -345h246l-85 345h-2zM352 833l-14 -133h135l14 133h-135z" />
    <glyph glyph-name="AE" unicode="&#xc6;" horiz-adv-x="968" 
d="M652 315l-24 -225h299l-9 -90h-399l17 166h-306l-132 -166h-118l563 700h448l-9 -90h-299l-22 -205h239l-9 -90h-239zM580 601l-278 -345h243l37 345h-2z" />
    <glyph glyph-name="Ccedilla" unicode="&#xc7;" horiz-adv-x="665" 
d="M503 175h100l-12 -113l-123 -67h-106l-22 -32l62 -38l-8 -74l-91 -50h-70l5 50h99l7 65h-89l53 79h-103l-109 67l61 576l123 67h263l109 -67l-12 -113h-100l9 90h-295l-56 -530h295z" />
    <glyph glyph-name="Egrave" unicode="&#xc8;" horiz-adv-x="539" 
d="M223 315l-24 -225h299l-9 -90h-399l73 700h399l-9 -90h-299l-22 -205h239l-9 -90h-239zM330 908l81 -128h-80l-131 128h130z" />
    <glyph glyph-name="Eacute" unicode="&#xc9;" horiz-adv-x="539" 
d="M223 315l-24 -225h299l-9 -90h-399l73 700h399l-9 -90h-299l-22 -205h239l-9 -90h-239zM287 780l107 128h130l-157 -128h-80z" />
    <glyph glyph-name="Ecircumflex" unicode="&#xca;" horiz-adv-x="539" 
d="M223 315l-24 -225h299l-9 -90h-399l73 700h399l-9 -90h-299l-22 -205h239l-9 -90h-239zM312 918h110l87 -138h-75l-73 80l-88 -80h-75z" />
    <glyph glyph-name="Edieresis" unicode="&#xcb;" horiz-adv-x="539" 
d="M223 315l-24 -225h299l-9 -90h-399l73 700h399l-9 -90h-299l-22 -205h239l-9 -90h-239zM192 785l11 105h105l-11 -105h-105zM411 785l11 105h105l-11 -105h-105z" />
    <glyph glyph-name="Igrave" unicode="&#xcc;" horiz-adv-x="280" 
d="M90 0l73 700h100l-73 -700h-100zM196 908l81 -128h-80l-131 128h130z" />
    <glyph glyph-name="Iacute" unicode="&#xcd;" horiz-adv-x="280" 
d="M90 0l73 700h100l-73 -700h-100zM127 780l107 128h130l-157 -128h-80z" />
    <glyph glyph-name="Icircumflex" unicode="&#xce;" horiz-adv-x="280" 
d="M90 0l73 700h100l-73 -700h-100zM161 918h110l87 -138h-75l-73 80l-88 -80h-75z" />
    <glyph glyph-name="Idieresis" unicode="&#xcf;" horiz-adv-x="280" 
d="M90 0l73 700h100l-73 -700h-100zM40 785l11 105h105l-11 -105h-105zM259 785l11 105h105l-11 -105h-105z" />
    <glyph glyph-name="Eth" unicode="&#xd0;" horiz-adv-x="705" 
d="M50 291l8 74h70l35 335h409l109 -67l-59 -566l-123 -67h-409l30 291h-70zM254 610l-26 -245h106l-8 -74h-106l-21 -201h325l55 520h-325z" />
    <glyph glyph-name="Ntilde" unicode="&#xd1;" horiz-adv-x="735" 
d="M245 529l-55 -529h-100l73 700h91l306 -529h2l56 529h100l-73 -700h-91l-307 529h-2zM346 857h-2l-9 -82h-68l10 94l100 55l133 -82h2l9 82h68l-10 -94l-100 -55z" />
    <glyph glyph-name="Ograve" unicode="&#xd2;" horiz-adv-x="705" 
d="M621 62l-123 -67h-293l-109 67l61 576l123 67h293l109 -67zM254 615l-56 -530h325l56 530h-325zM400 908l81 -128h-80l-131 128h130z" />
    <glyph glyph-name="Oacute" unicode="&#xd3;" horiz-adv-x="705" 
d="M621 62l-123 -67h-293l-109 67l61 576l123 67h293l109 -67zM254 615l-56 -530h325l56 530h-325zM340 780l107 128h130l-157 -128h-80z" />
    <glyph glyph-name="Ocircumflex" unicode="&#xd4;" horiz-adv-x="705" 
d="M621 62l-123 -67h-293l-109 67l61 576l123 67h293l109 -67zM254 615l-56 -530h325l56 530h-325zM373 918h110l87 -138h-75l-73 80l-88 -80h-75z" />
    <glyph glyph-name="Otilde" unicode="&#xd5;" horiz-adv-x="705" 
d="M621 62l-123 -67h-293l-109 67l61 576l123 67h293l109 -67zM254 615l-56 -530h325l56 530h-325zM340 857h-2l-9 -82h-68l10 94l100 55l133 -82h2l9 82h68l-10 -94l-100 -55z" />
    <glyph glyph-name="Odieresis" unicode="&#xd6;" horiz-adv-x="705" 
d="M621 62l-123 -67h-293l-109 67l61 576l123 67h293l109 -67zM254 615l-56 -530h325l56 530h-325zM258 785l11 105h105l-11 -105h-105zM477 785l11 105h105l-11 -105h-105z" />
    <glyph glyph-name="multiply" unicode="&#xd7;" horiz-adv-x="610" 
d="M178 495l160 -179l198 179l59 -66l-198 -179l160 -179l-73 -66l-160 179l-198 -179l-59 66l198 179l-160 179z" />
    <glyph glyph-name="Oslash" unicode="&#xd8;" horiz-adv-x="705" 
d="M621 62l-123 -67h-293l-109 67l61 576l123 67h293l109 -67zM254 615l-49 -465l334 465h-285zM238 85h285l49 465z" />
    <glyph glyph-name="Ugrave" unicode="&#xd9;" horiz-adv-x="705" 
d="M588 700h100l-67 -638l-123 -67h-293l-109 67l67 638h100l-64 -605h325zM380 908l81 -128h-80l-131 128h130z" />
    <glyph glyph-name="Uacute" unicode="&#xda;" horiz-adv-x="705" 
d="M588 700h100l-67 -638l-123 -67h-293l-109 67l67 638h100l-64 -605h325zM357 780l107 128h130l-157 -128h-80z" />
    <glyph glyph-name="Ucircumflex" unicode="&#xdb;" horiz-adv-x="705" 
d="M588 700h100l-67 -638l-123 -67h-293l-109 67l67 638h100l-64 -605h325zM373 918h110l87 -138h-75l-73 80l-88 -80h-75z" />
    <glyph glyph-name="Udieresis" unicode="&#xdc;" horiz-adv-x="705" 
d="M588 700h100l-67 -638l-123 -67h-293l-109 67l67 638h100l-64 -605h325zM252 785l11 105h105l-11 -105h-105zM471 785l11 105h105l-11 -105h-105z" />
    <glyph glyph-name="Yacute" unicode="&#xdd;" horiz-adv-x="611" 
d="M255 0l32 309l-194 391h112l141 -298h2l204 298h112l-277 -392l-32 -308h-100zM317 780l107 128h130l-157 -128h-80z" />
    <glyph glyph-name="Thorn" unicode="&#xde;" horiz-adv-x="635" 
d="M90 0l76 730h100l-15 -143h249l109 -67l-31 -297l-123 -67h-249l-16 -156h-100zM242 497l-27 -251h265l27 251h-265z" />
    <glyph glyph-name="germandbls" unicode="&#xdf;" horiz-adv-x="665" 
d="M63 317l9 90h90l24 226l123 67h203l109 -67l-23 -220l-79 -43l98 -59l-25 -244l-123 -67h-176l9 90h192l24 227h-192l9 90h162l22 203h-235l-86 -810h-100l55 517h-90z" />
    <glyph glyph-name="agrave" unicode="&#xe0;" horiz-adv-x="575" 
d="M220 418l-35 -336h221l35 336h-221zM548 505l-54 -510h-26l-67 41l-75 -41h-131l-109 67l40 376l123 67h131l66 -41l76 41h26zM360 718l81 -128h-80l-131 128h130z" />
    <glyph glyph-name="aacute" unicode="&#xe1;" horiz-adv-x="575" 
d="M220 418l-35 -336h221l35 336h-221zM548 505l-54 -510h-26l-67 41l-75 -41h-131l-109 67l40 376l123 67h131l66 -41l76 41h26zM267 590l107 128h130l-157 -128h-80z" />
    <glyph glyph-name="acircumflex" unicode="&#xe2;" horiz-adv-x="575" 
d="M220 418l-35 -336h221l35 336h-221zM548 505l-54 -510h-26l-67 41l-75 -41h-131l-109 67l40 376l123 67h131l66 -41l76 41h26zM306 728h110l87 -138h-75l-73 80l-88 -80h-75z" />
    <glyph glyph-name="atilde" unicode="&#xe3;" horiz-adv-x="575" 
d="M220 418l-35 -336h221l35 336h-221zM548 505l-54 -510h-26l-67 41l-75 -41h-131l-109 67l40 376l123 67h131l66 -41l76 41h26zM270 667h-2l-9 -82h-68l10 94l100 55l133 -82h2l9 82h68l-10 -94l-100 -55z" />
    <glyph glyph-name="adieresis" unicode="&#xe4;" horiz-adv-x="575" 
d="M220 418l-35 -336h221l35 336h-221zM548 505l-54 -510h-26l-67 41l-75 -41h-131l-109 67l40 376l123 67h131l66 -41l76 41h26zM192 595l11 105h105l-11 -105h-105zM411 595l11 105h105l-11 -105h-105z" />
    <glyph glyph-name="aring" unicode="&#xe5;" horiz-adv-x="575" 
d="M220 418l-35 -336h221l35 336h-221zM548 505l-54 -510h-26l-67 41l-75 -41h-131l-109 67l40 376l123 67h131l66 -41l76 41h26zM488 617l-87 -47h-121l-77 47l18 169l87 47h121l77 -47zM294 768l-14 -133h135l14 133h-135z" />
    <glyph glyph-name="ae" unicode="&#xe6;" horiz-adv-x="833" 
d="M762 87l-9 -87h-279l-85 52l-103 -57h-111l-109 67l17 163l123 67h182l13 121h-248l9 87h229l59 -37l77 42h163l109 -67l-24 -222h-298l-13 -129h298zM178 205l-13 -123h201l13 123h-201zM498 418l-12 -115h201l12 115h-201z" />
    <glyph glyph-name="ccedilla" unicode="&#xe7;" horiz-adv-x="515" 
d="M269 0h-73l-109 67l38 366l123 67h259l-9 -87h-278l-34 -326h278l-9 -87h-132l-26 -37l62 -38l-8 -74l-91 -50h-70l5 50h99l7 65h-89z" />
    <glyph glyph-name="egrave" unicode="&#xe8;" horiz-adv-x="555" 
d="M484 87l-9 -87h-279l-109 67l39 371l123 67h163l109 -67l-24 -222h-298l-13 -129h298zM220 418l-12 -115h201l12 115h-201zM360 718l81 -128h-80l-131 128h130z" />
    <glyph glyph-name="eacute" unicode="&#xe9;" horiz-adv-x="555" 
d="M484 87l-9 -87h-279l-109 67l39 371l123 67h163l109 -67l-24 -222h-298l-13 -129h298zM220 418l-12 -115h201l12 115h-201zM247 590l107 128h130l-157 -128h-80z" />
    <glyph glyph-name="ecircumflex" unicode="&#xea;" horiz-adv-x="555" 
d="M484 87l-9 -87h-279l-109 67l39 371l123 67h163l109 -67l-24 -222h-298l-13 -129h298zM220 418l-12 -115h201l12 115h-201zM303 728h110l87 -138h-75l-73 80l-88 -80h-75z" />
    <glyph glyph-name="edieresis" unicode="&#xeb;" horiz-adv-x="555" 
d="M484 87l-9 -87h-279l-109 67l39 371l123 67h163l109 -67l-24 -222h-298l-13 -129h298zM220 418l-12 -115h201l12 115h-201zM175 595l11 105h105l-11 -105h-105zM394 595l11 105h105l-11 -105h-105z" />
    <glyph glyph-name="igrave" unicode="&#xec;" horiz-adv-x="257" 
d="M229 500l-52 -500h-97l52 500h97zM178 718l81 -128h-80l-131 128h130z" />
    <glyph glyph-name="iacute" unicode="&#xed;" horiz-adv-x="257" 
d="M229 500l-52 -500h-97l52 500h97zM122 590l107 128h130l-157 -128h-80z" />
    <glyph glyph-name="icircumflex" unicode="&#xee;" horiz-adv-x="257" 
d="M229 500l-52 -500h-97l52 500h97zM149 728h110l87 -138h-75l-73 80l-88 -80h-75z" />
    <glyph glyph-name="idieresis" unicode="&#xef;" horiz-adv-x="257" 
d="M229 500l-52 -500h-97l52 500h97zM29 595l11 105h105l-11 -105h-105zM248 595l11 105h105l-11 -105h-105z" />
    <glyph glyph-name="eth" unicode="&#xf0;" horiz-adv-x="635" 
d="M391 487l7 74h106l6 54h-239l10 90h223l109 -67l-9 -77h70l-7 -74h-70l-45 -425l-123 -67h-223l-109 67l32 301l123 67h168l66 -41l11 98h-106zM454 85l27 255h-255l-27 -255h255z" />
    <glyph glyph-name="ntilde" unicode="&#xf1;" 
d="M551 438l-46 -438h-97l43 418h-231l-43 -418h-97l53 505h73l19 -41l76 41h141zM279 667h-2l-9 -82h-68l10 94l100 55l133 -82h2l9 82h68l-10 -94l-100 -55z" />
    <glyph glyph-name="ograve" unicode="&#xf2;" 
d="M511 62l-123 -67h-193l-109 67l40 376l123 67h193l109 -67zM220 418l-35 -336h231l35 336h-231zM367 718l81 -128h-80l-131 128h130z" />
    <glyph glyph-name="oacute" unicode="&#xf3;" 
d="M511 62l-123 -67h-193l-109 67l40 376l123 67h193l109 -67zM220 418l-35 -336h231l35 336h-231zM280 590l107 128h130l-157 -128h-80z" />
    <glyph glyph-name="ocircumflex" unicode="&#xf4;" 
d="M511 62l-123 -67h-193l-109 67l40 376l123 67h193l109 -67zM220 418l-35 -336h231l35 336h-231zM316 728h110l87 -138h-75l-73 80l-88 -80h-75z" />
    <glyph glyph-name="otilde" unicode="&#xf5;" 
d="M511 62l-123 -67h-193l-109 67l40 376l123 67h193l109 -67zM220 418l-35 -336h231l35 336h-231zM283 667h-2l-9 -82h-68l10 94l100 55l133 -82h2l9 82h68l-10 -94l-100 -55z" />
    <glyph glyph-name="odieresis" unicode="&#xf6;" 
d="M511 62l-123 -67h-193l-109 67l40 376l123 67h193l109 -67zM220 418l-35 -336h231l35 336h-231zM193 595l11 105h105l-11 -105h-105zM412 595l11 105h105l-11 -105h-105z" />
    <glyph glyph-name="divide" unicode="&#xf7;" horiz-adv-x="600" 
d="M581 297l-10 -94h-500l10 94h500zM233 -10l14 130h130l-14 -130h-130zM274 380l14 130h130l-14 -130h-130z" />
    <glyph glyph-name="oslash" unicode="&#xf8;" 
d="M511 62l-123 -67h-193l-109 67l40 376l123 67h193l109 -67zM220 418l-29 -278l220 278h-191zM225 82h191l29 278z" />
    <glyph glyph-name="ugrave" unicode="&#xf9;" 
d="M86 62l46 438h97l-44 -418h231l44 418h97l-53 -505h-73l-20 41l-75 -41h-141zM350 718l81 -128h-80l-131 128h130z" />
    <glyph glyph-name="uacute" unicode="&#xfa;" 
d="M86 62l46 438h97l-44 -418h231l44 418h97l-53 -505h-73l-20 41l-75 -41h-141zM297 590l107 128h130l-157 -128h-80z" />
    <glyph glyph-name="ucircumflex" unicode="&#xfb;" 
d="M86 62l46 438h97l-44 -418h231l44 418h97l-53 -505h-73l-20 41l-75 -41h-141zM314 728h110l87 -138h-75l-73 80l-88 -80h-75z" />
    <glyph glyph-name="udieresis" unicode="&#xfc;" 
d="M86 62l46 438h97l-44 -418h231l44 418h97l-53 -505h-73l-20 41l-75 -41h-141zM192 595l11 105h105l-11 -105h-105zM411 595l11 105h105l-11 -105h-105z" />
    <glyph glyph-name="yacute" unicode="&#xfd;" horiz-adv-x="519" 
d="M104 -200l111 223l-143 477h97l105 -356h2l178 356h97l-352 -700h-95zM257 590l107 128h130l-157 -128h-80z" />
    <glyph glyph-name="thorn" unicode="&#xfe;" horiz-adv-x="595" 
d="M156 730h97l-28 -266l76 41h151l109 -67l-40 -376l-123 -67h-151l-67 41l-25 -236h-97zM220 418l-35 -336h241l35 336h-241z" />
    <glyph glyph-name="ydieresis" unicode="&#xff;" horiz-adv-x="519" 
d="M104 -200l111 223l-143 477h97l105 -356h2l178 356h97l-352 -700h-95zM160 595l11 105h105l-11 -105h-105zM379 595l11 105h105l-11 -105h-105z" />
    <glyph glyph-name="hbar" unicode="&#x127;" horiz-adv-x="595" 
d="M177 0h-97l61 585h-70l8 74h69l8 71h97l-8 -71h150l-8 -74h-150l-12 -121l76 41h151l109 -67l-46 -438h-97l43 418h-241z" />
    <glyph glyph-name="Itilde" unicode="&#x128;" horiz-adv-x="280" 
d="M90 0l73 700h100l-73 -700h-100zM147 867h-2l-9 -82h-68l10 94l100 55l133 -82h2l9 82h68l-10 -94l-100 -55z" />
    <glyph glyph-name="itilde" unicode="&#x129;" horiz-adv-x="257" 
d="M229 500l-52 -500h-97l52 500h97zM116 667h-2l-9 -82h-68l10 94l100 55l133 -82h2l9 82h68l-10 -94l-100 -55z" />
    <glyph glyph-name="dotlessi" unicode="&#x131;" horiz-adv-x="257" 
d="M229 500l-52 -500h-97l52 500h97z" />
    <glyph glyph-name="IJ" unicode="&#x132;" horiz-adv-x="815" 
d="M90 0l73 700h100l-73 -700h-100zM633 85l65 615h100l-67 -638l-123 -67h-193l-109 67l17 163h100l-15 -140h225z" />
    <glyph glyph-name="ij" unicode="&#x133;" horiz-adv-x="514" 
d="M229 500l-52 -500h-97l52 500h97zM140 623l11 107h107l-11 -107h-107zM397 623l11 107h107l-11 -107h-107zM486 500l-66 -633l-124 -67h-100l10 87h119l64 613h97z" />
    <glyph glyph-name="Jcircumflex" unicode="&#x134;" horiz-adv-x="535" 
d="M353 85l65 615h100l-67 -638l-123 -67h-193l-109 67l17 163h100l-15 -140h225zM416 928h110l87 -138h-75l-73 80l-88 -80h-75z" />
    <glyph glyph-name="jcircumflex" unicode="&#x135;" horiz-adv-x="257" 
d="M177 500v-633l-116 -67h-101v87h120v613h97zM149 728h110l87 -138h-75l-73 80l-88 -80h-75z" />
    <glyph glyph-name="kcommaaccent" unicode="&#x137;" horiz-adv-x="531" 
d="M253 730l-50 -479h2l232 249h116l-217 -226l195 -274h-119l-141 205l-82 -86l-12 -119h-97l76 730h97zM194 -335l30 280h120l-4 -34l-112 -246h-34z" />
    <glyph glyph-name="kgreenlandic" unicode="&#x138;" horiz-adv-x="531" 
d="M229 500l-26 -249h2l232 249h116l-217 -226l195 -274h-119l-141 205l-82 -86l-12 -119h-97l52 500h97z" />
    <glyph glyph-name="Ldotaccent" unicode="&#x13f;" horiz-adv-x="479" 
d="M90 0l73 700h100l-64 -610h259l-9 -90h-359zM308 232l12 120h120l-12 -120h-120z" />
    <glyph glyph-name="ldot" unicode="&#x140;" horiz-adv-x="400" 
d="M196 0l-109 67l69 663h97l-67 -643h120l-9 -87h-101zM289 239l12 120h120l-12 -120h-120z" />
    <glyph glyph-name="Lslash" unicode="&#x141;" horiz-adv-x="479" 
d="M50 291l8 74l71 15l34 320h100l-31 -298l108 23l-8 -74l-108 -23l-25 -238h259l-9 -90h-359l32 306z" />
    <glyph glyph-name="lslash" unicode="&#x142;" horiz-adv-x="317" 
d="M50 291l8 74l62 16l36 349h97l-34 -322l103 27l-8 -74l-102 -27l-26 -247h120l-9 -87h-101l-109 67l25 240z" />
    <glyph glyph-name="Nacute" unicode="&#x143;" horiz-adv-x="735" 
d="M245 529l-55 -529h-100l73 700h91l306 -529h2l56 529h100l-73 -700h-91l-307 529h-2zM372 790l107 128h130l-157 -128h-80z" />
    <glyph glyph-name="nacute" unicode="&#x144;" 
d="M551 438l-46 -438h-97l43 418h-231l-43 -418h-97l53 505h73l19 -41l76 41h141zM263 590l107 128h130l-157 -128h-80z" />
    <glyph glyph-name="OE" unicode="&#x152;" horiz-adv-x="964" 
d="M648 315l-24 -225h299l-9 -90h-708l-109 67l59 566l123 67h708l-9 -90h-299l-22 -205h239l-9 -90h-239zM254 610l-55 -520h325l55 520h-325z" />
    <glyph glyph-name="oe" unicode="&#x153;" horiz-adv-x="883" 
d="M812 87l-9 -87h-279l-60 36l-76 -41h-193l-109 67l40 376l123 67h193l62 -39l73 39h163l109 -67l-24 -222h-298l-13 -129h298zM220 418l-35 -336h231l35 336h-231zM548 418l-12 -115h201l12 115h-201z" />
    <glyph glyph-name="Racute" unicode="&#x154;" horiz-adv-x="655" 
d="M370 279h-151l-29 -279h-100l73 700h359l109 -67l-30 -287l-123 -67l132 -279h-111zM254 610l-26 -241h275l26 241h-275zM277 790l107 128h130l-157 -128h-80z" />
    <glyph glyph-name="Rcommaaccent" unicode="&#x156;" horiz-adv-x="655" 
d="M370 279h-151l-29 -279h-100l73 700h359l109 -67l-30 -287l-123 -67l132 -279h-111zM254 610l-26 -241h275l26 241h-275zM236 -335l30 280h120l-4 -34l-112 -246h-34z" />
    <glyph glyph-name="rcommaaccent" unicode="&#x157;" horiz-adv-x="389" 
d="M402 413h-182l-43 -413h-97l52 500h73l20 -41l75 41h111zM113 -335l30 280h120l-4 -34l-112 -246h-34z" />
    <glyph glyph-name="Rcaron" unicode="&#x158;" horiz-adv-x="655" 
d="M370 279h-151l-29 -279h-100l73 700h359l109 -67l-30 -287l-123 -67l132 -279h-111zM254 610l-26 -241h275l26 241h-275zM444 790h-110l-86 138h75l72 -80l89 80h75z" />
    <glyph glyph-name="rcaron" unicode="&#x159;" horiz-adv-x="389" 
d="M402 413h-182l-43 -413h-97l52 500h73l20 -41l75 41h111zM311 590h-110l-86 138h75l72 -80l89 80h75z" />
    <glyph glyph-name="Scaron" unicode="&#x160;" horiz-adv-x="645" 
d="M128 370l29 268l123 67h233l109 -67l-11 -103h-100l8 80h-265l-22 -212h249l109 -67l-29 -274l-123 -67h-243l-109 67l11 103h100l-9 -80h275l23 218h-249zM442 780h-110l-86 138h75l72 -80l89 80h75z" />
    <glyph glyph-name="scaron" unicode="&#x161;" horiz-adv-x="536" 
d="M480 230l-17 -163l-123 -67h-260l9 87h279l13 123h-163l-109 67l16 156l123 67h250l-9 -87h-269l-12 -116h163zM385 590h-110l-86 138h75l72 -80l89 80h75z" />
    <glyph glyph-name="Ydieresis" unicode="&#x178;" horiz-adv-x="611" 
d="M255 0l32 309l-194 391h112l141 -298h2l204 298h112l-277 -392l-32 -308h-100zM205 785l11 105h105l-11 -105h-105zM424 785l11 105h105l-11 -105h-105z" />
    <glyph glyph-name="Zcaron" unicode="&#x17d;" 
d="M134 610l9 90h455l-6 -60l-403 -548v-2h345l-9 -90h-475l6 60l402 548l1 2h-325zM406 780h-110l-86 138h75l72 -80l89 80h75z" />
    <glyph glyph-name="zcaron" unicode="&#x17e;" horiz-adv-x="466" 
d="M46 66l289 345v2h-242l9 87h366l-7 -66l-288 -345v-2h252l-9 -87h-376zM342 590h-110l-86 138h75l72 -80l89 80h75z" />
    <glyph glyph-name="florin" unicode="&#x192;" horiz-adv-x="389" 
d="M272 413l-57 -546l-124 -67h-100l9 87h120l55 526h-92l9 87h92l17 163l123 67h101l-9 -87h-120l-15 -143h120l-9 -87h-120z" />
    <glyph glyph-name="circumflex" unicode="&#x2c6;" horiz-adv-x="531" 
d="M286 728h110l87 -138h-75l-73 80l-88 -80h-75z" />
    <glyph glyph-name="caron" unicode="&#x2c7;" horiz-adv-x="531" 
d="M382 590h-110l-86 138h75l72 -80l89 80h75z" />
    <glyph glyph-name="breve" unicode="&#x2d8;" horiz-adv-x="529" 
d="M409 736h75l-12 -109l-87 -47h-121l-77 47l12 109h75l-10 -91h135z" />
    <glyph glyph-name="dotaccent" unicode="&#x2d9;" horiz-adv-x="350" 
d="M162 591l15 150h150l-15 -150h-150z" />
    <glyph glyph-name="ring" unicode="&#x2da;" horiz-adv-x="529" 
d="M471 617l-87 -47h-121l-77 47l18 169l87 47h121l77 -47zM277 768l-14 -133h135l14 133h-135z" />
    <glyph glyph-name="ogonek" unicode="&#x2db;" horiz-adv-x="520" 
d="M247 0l-14 -131h93l-7 -67h-44l-109 67l14 131h67z" />
    <glyph glyph-name="tilde" unicode="&#x2dc;" horiz-adv-x="506" 
d="M240 667h-2l-9 -82h-68l10 94l100 55l133 -82h2l9 82h68l-10 -94l-100 -55z" />
    <glyph glyph-name="hungarumlaut" unicode="&#x2dd;" horiz-adv-x="500" 
d="M307 590l107 128h130l-157 -128h-80zM128 590l107 128h130l-157 -128h-80z" />
    <glyph glyph-name="endash" unicode="&#x2013;" horiz-adv-x="696" 
d="M92 218l10 87h556l-10 -87h-556z" />
    <glyph glyph-name="emdash" unicode="&#x2014;" horiz-adv-x="974" 
d="M92 218l10 87h834l-10 -87h-834z" />
    <glyph glyph-name="quoteleft" unicode="&#x2018;" horiz-adv-x="330" 
d="M316 730l-37 -350h-150l5 42l140 308h42z" />
    <glyph glyph-name="quoteright" unicode="&#x2019;" horiz-adv-x="330" 
d="M129 380l37 350h150l-4 -42l-141 -308h-42z" />
    <glyph glyph-name="quotesinglbase" unicode="&#x201a;" horiz-adv-x="350" 
d="M78 -200l37 350h150l-4 -42l-141 -308h-42z" />
    <glyph glyph-name="quotedblleft" unicode="&#x201c;" horiz-adv-x="570" 
d="M556 730l-37 -350h-150l5 42l140 308h42zM316 730l-37 -350h-150l5 42l140 308h42z" />
    <glyph glyph-name="quotedblright" unicode="&#x201d;" horiz-adv-x="570" 
d="M129 380l37 350h150l-4 -42l-141 -308h-42zM369 380l37 350h150l-4 -42l-141 -308h-42z" />
    <glyph glyph-name="quotedblbase" unicode="&#x201e;" horiz-adv-x="590" 
d="M78 -200l37 350h150l-4 -42l-141 -308h-42zM318 -200l37 350h150l-4 -42l-141 -308h-42z" />
    <glyph glyph-name="dagger" unicode="&#x2020;" horiz-adv-x="583" 
d="M370 444l-58 -644h-85l78 644l-200 -10l9 85l198 -10l13 222h85l-33 -222l200 10l-9 -85z" />
    <glyph glyph-name="daggerdbl" unicode="&#x2021;" horiz-adv-x="583" 
d="M358 266l-25 -179l200 10l-9 -85l-198 10l-14 -222h-85l34 222l-200 -10l9 85l198 -10l11 179l26 178l-200 -10l9 85l198 -10l13 222h85l-33 -222l200 10l-9 -85l-198 10z" />
    <glyph glyph-name="bullet" unicode="&#x2022;" horiz-adv-x="580" 
d="M503 224l-123 -67h-148l-109 67l26 246l123 67h148l109 -67z" />
    <glyph glyph-name="ellipsis" unicode="&#x2026;" horiz-adv-x="970" 
d="M100 0l15 150h150l-15 -150h-150zM410 0l15 150h150l-15 -150h-150zM720 0l15 150h150l-15 -150h-150z" />
    <glyph glyph-name="perthousand" unicode="&#x2030;" horiz-adv-x="1396" 
d="M781 710h90l-589 -720h-90zM469 424l-123 -67h-113l-109 67l23 219l123 67h113l109 -67zM237 629l-20 -191h163l20 191h-163zM595 276l123 67h113l109 -67l-24 -219l-123 -67h-113l-109 67zM827 71l20 191h-163l-20 -191h163zM1030 276l123 67h113l109 -67l-24 -219
l-123 -67h-113l-109 67zM1262 71l20 191h-163l-20 -191h163z" />
    <glyph glyph-name="guilsinglleft" unicode="&#x2039;" horiz-adv-x="430" 
d="M351 107l-11 -107l-229 200l10 102l271 200l-11 -107l-198 -143v-1z" />
    <glyph glyph-name="guilsinglright" unicode="&#x203a;" horiz-adv-x="430" 
d="M90 0l11 107l198 144v1l-168 143l11 107l229 -200l-10 -102z" />
    <glyph glyph-name="fraction" unicode="&#x2044;" horiz-adv-x="663" 
d="M637 710h90l-629 -720h-90z" />
    <glyph glyph-name="Euro" unicode="&#x20ac;" horiz-adv-x="674" 
d="M506 461l-51 -74h-208l-8 -74h166l-50 -74h-123l-17 -154h287l10 90h100l-12 -113l-123 -67h-255l-109 67l19 177h-77l7 74h77l8 74h-77l8 74h77l19 177l123 67h255l109 -67l-12 -113h-100l9 90h-287l-16 -154h251z" />
    <glyph glyph-name="trademark" unicode="&#x2122;" horiz-adv-x="845" 
d="M724 340l26 243h-2l-110 -243h-61l-56 243h-2l-26 -243h-66l38 360h85l68 -265h2l123 265h85l-38 -360h-66zM301 637l-31 -297h-68l31 297h-97l7 63h261l-7 -63h-96z" />
    <glyph glyph-name="partialdiff" unicode="&#x2202;" horiz-adv-x="635" 
d="M509 615h-239l10 90h223l109 -67l-61 -576l-123 -67h-223l-109 67l32 301l123 67h168l66 -41zM453 85l27 255h-255l-27 -255h255z" />
    <glyph glyph-name="minus" unicode="&#x2212;" horiz-adv-x="600" 
d="M581 297l-10 -94h-500l10 94h500z" />
    <glyph glyph-name="infinity" unicode="&#x221e;" horiz-adv-x="890" 
d="M234 428l-24 -235h205l24 235h-205zM539 428l-24 -235h205l24 235h-205zM817 170l-123 -67h-123l-109 67l-123 -67h-123l-109 67l30 281l123 67h123l109 -67l123 67h123l109 -67z" />
    <glyph glyph-name="approxequal" unicode="&#x2248;" horiz-adv-x="722" 
d="M310 371h-95l-8 -82h-87l11 102l123 67h103l132 -82h95l9 82h87l-11 -102l-123 -67h-103zM285 133h-95l-8 -82h-87l11 102l123 67h103l132 -82h95l9 82h87l-11 -102l-123 -67h-103z" />
    <glyph glyph-name="notequal" unicode="&#x2260;" horiz-adv-x="680" 
d="M633 411l-10 -94h-153l-119 -134h258l-10 -94h-332l-89 -100h-90l89 100h-78l10 94h152l119 134h-257l10 94h331l89 100h90l-89 -100h79z" />
    <glyph glyph-name="lessequal" unicode="&#x2264;" horiz-adv-x="680" 
d="M642 501l-9 -91l-374 -89v-2l355 -89l-10 -91l-486 130l10 102zM599 94l-9 -94h-500l9 94h500z" />
    <glyph glyph-name="greaterequal" unicode="&#x2265;" horiz-adv-x="680" 
d="M133 410l9 91l486 -130l-10 -102l-514 -130l10 91l373 89v2zM90 0l9 94h500l-9 -94h-500z" />
    <glyph glyph-name="a.alt" unicode="&#xe001;" horiz-adv-x="535" 
d="M178 205l-13 -123h201l13 123h-201zM175 -5l-109 67l17 163l123 67h182l13 121h-248l9 87h229l109 -67l-46 -438h-26l-67 41l-75 -41h-111z" />
    <glyph glyph-name="g.alt" unicode="&#xe002;" horiz-adv-x="575" 
d="M177 0l-92 56l10 90l75 41l-67 41l22 205l123 67h319l-4 -34l-96 -53l57 -36l-14 -138l-123 -67h-192l-9 -85h222l109 -67l-17 -158l-123 -67h-223l-109 67l7 62l102 56l-10 -100h261l13 120h-241zM220 415l-16 -158h211l16 158h-211z" />
    <glyph glyph-name="l.alt" unicode="&#xe003;" horiz-adv-x="257" 
d="M177 0h-97l76 730h97z" />
    <glyph glyph-name="dotlessj" unicode="&#xf6be;" horiz-adv-x="257" 
d="M229 500l-66 -633l-124 -67h-100l10 87h119l64 613h97z" />
    <glyph glyph-name="commaaccent" unicode="&#xf6c3;" horiz-adv-x="500" 
d="M64 -335l30 280h120l-4 -34l-112 -246h-34z" />
    <glyph glyph-name="madslug" unicode="&#xf800;" horiz-adv-x="896" 
d="M650 51q-96 -60 -203 -60q-152 0 -259.5 108t-107.5 262q0 97 43.5 173.5t91.5 76.5t48 -51q0 -33 -29.5 -163t-29.5 -132q0 -11 18 -11t56.5 9t42.5 17q0 2 15 68t24 108q20 101 20 136.5t-32 56t-81 20.5l-19 -2l-2 3q94 60 201 60q154 0 261.5 -108t107.5 -262
q0 -97 -43.5 -173.5t-91.5 -76.5t-48 51q0 33 29.5 163t29.5 131q0 12 -18 12t-56.5 -9t-42.5 -17q0 -2 -15 -68t-24 -108q-20 -101 -20 -136.5t32 -56t81 -20.5l19 1zM476 234q13 53 35 156.5t22 112t-17.5 8.5t-50 -7t-45.5 -17q-13 -53 -35 -156.5t-22 -112.5t17 -9
t50 7.5t46 17.5z" />
    <glyph glyph-name="apple" unicode="&#xf8ff;" horiz-adv-x="858" 
d="M154 107q-74 128 -74 244t53.5 191.5t145.5 75.5q35 0 88 -15t71.5 -15t69.5 17t87 17q60 0 107 -32q30 -23 52 -50q-45 -39 -67.5 -75t-22.5 -93.5t34 -106.5t80 -63q-21 -64 -62 -125q-65 -98 -129 -98q-26 0 -69 16t-74.5 16t-73.5 -17t-66 -17q-77 0 -150 130z
M589 790q0 -77 -61 -138q-24 -24 -43.5 -32t-62.5 -12q2 165 164 203q3 -9 3 -21z" />
    <glyph glyph-name="fi" unicode="&#xfb01;" horiz-adv-x="636" 
d="M83 413l9 87h92l17 163l123 67h313l-9 -87h-332l-15 -143h140l-9 -87h-140l-43 -413h-97l43 413h-92zM608 500l-52 -500h-97l52 500h97z" />
    <glyph glyph-name="fl" unicode="&#xfb02;" horiz-adv-x="706" 
d="M585 0l-109 67l60 576h-240l-15 -143h150l-9 -87h-150l-43 -413h-97l43 413h-92l9 87h92l17 163l123 67h318l-67 -643h120l-9 -87h-101z" />
    <glyph glyph-name="ffi" unicode="&#xfb03;" horiz-adv-x="1035" 
d="M272 413l-43 -413h-97l43 413h-92l9 87h92l17 163l123 67h141l-9 -87h-160l-15 -143h272l17 163l123 67h343l-9 -87h-362l-15 -143h160l-9 -87h-160l-43 -413h-97l43 413h-272zM1007 500l-52 -500h-97l52 500h97z" />
    <glyph glyph-name="ffl" unicode="&#xfb04;" horiz-adv-x="1095" 
d="M83 413l9 87h92l17 163l123 67h171l-9 -87h-190l-15 -143h292l17 163l123 67h318l-67 -643h120l-9 -87h-101l-109 67l60 576h-240l-15 -143h150l-9 -87h-150l-43 -413h-97l43 413h-292l-43 -413h-97l43 413h-92z" />
    <glyph glyph-name="st" unicode="&#xfb06;" horiz-adv-x="909" 
d="M220 413l-12 -116h163l109 -67l-17 -163l-123 -67h-260l9 87h279l13 123h-163l-109 67l16 156l123 67h436l9 84l103 56l-15 -140h120l-9 -87h-120l-34 -326h120l-9 -87h-101l-109 67l36 346h-455z" />
    <glyph glyph-name="fj" unicode="&#xfb07;" horiz-adv-x="636" 
d="M83 413l9 87h92l17 163l123 67h313l-9 -87h-332l-15 -143h120l-9 -87h-120l-43 -413h-97l43 413h-92zM608 500l-66 -633l-124 -67h-101l10 87h120l64 613h97z" />
    <glyph glyph-name="ct" unicode="&#xfb08;" horiz-adv-x="889" 
d="M220 413l-34 -326h278l-9 -87h-259l-109 67l38 366l123 67h396l9 84l103 56l-15 -140h120l-9 -87h-120l-34 -326h120l-9 -87h-101l-109 67l36 346h-415z" />
    </font>
</defs>
</svg>
